<?xml version="1.0" encoding="UTF-8"?>
<svg version="1.1" xmlns="http://www.w3.org/2000/svg" width="300" height="300">
<path d="M0 0 C0.91136719 0.495 1.82273438 0.99 2.76171875 1.5 C14.60457301 8.57756316 20.56719224 23.12697088 24 36 C26.52977978 48.78944223 24.80811035 60.06651313 20 72 C20.74983154 72.10022461 21.49966309 72.20044922 22.2722168 72.30371094 C25.74560768 72.77455252 29.21645218 73.26219674 32.6875 73.75 C33.86634766 73.90726562 35.04519531 74.06453125 36.25976562 74.2265625 C54.202362 76.78276801 70.39653206 82.29470545 82.1953125 96.67578125 C92.11670355 109.91040436 96.75616742 123.34819537 95 140 C94.04203903 145.14517747 92.64912372 150.03646097 91 155 C90.62617188 156.13566406 90.25234375 157.27132812 89.8671875 158.44140625 C87.17988055 165.97832341 83.67991702 172.51540909 79 179 C78.50113281 179.69609375 78.00226563 180.3921875 77.48828125 181.109375 C67.99675131 193.06344294 52.15095007 202.15623359 37 204 C18.28611746 205.04235356 -3.88568765 203.56824676 -18.8125 191 C-20.89030374 189.12170435 -22.72838261 187.20224762 -24.625 185.125 C-26.80354368 182.78043117 -26.80354368 182.78043117 -29.625 182.625 C-32.14042413 182.95547527 -32.14042413 182.95547527 -35 184 C-35.71248107 185.30942466 -36.37514834 186.64656636 -37 188 C-45.08568746 198.44919611 -58.18477758 204.92675876 -71 207 C-92.63588657 209.12330278 -114.70832469 202.38489389 -131.765625 188.796875 C-134.25929791 186.60184555 -136.64700643 184.34454476 -139 182 C-139.56332031 181.45988281 -140.12664062 180.91976562 -140.70703125 180.36328125 C-151.29560042 169.27182489 -155.59177583 153.23230902 -155.4375 138.3125 C-155.42920166 137.26884277 -155.42090332 136.22518555 -155.41235352 135.14990234 C-155.12197623 121.73467857 -152.86922041 110.52247421 -144 100 C-143.34902344 99.15824219 -142.69804687 98.31648438 -142.02734375 97.44921875 C-134.67547633 88.56748297 -123.83686405 83.04082635 -114.12109375 77.1484375 C-113.26862061 76.60960937 -112.41614746 76.07078125 -111.5378418 75.515625 C-109 74 -109 74 -106.45629883 72.890625 C-103.64979823 71.51652318 -102.00520359 70.41732661 -100 68 C-98.39202437 62.97537033 -97.6948917 57.98980226 -97.1003418 52.75961304 C-96.61844827 48.55811665 -96.00099292 44.37642355 -95.39453125 40.19140625 C-95.22245651 38.97370293 -95.22245651 38.97370293 -95.04690552 37.73139954 C-93.36464072 26.13763145 -90.60412276 13.5201801 -82 5 C-81.45085937 4.41476563 -80.90171875 3.82953125 -80.3359375 3.2265625 C-57.38026607 -19.14300668 -25.42773238 -14.17212612 0 0 Z M-66.16015625 19.4765625 C-71.0685644 25.84373121 -74.35811945 32.42732215 -77 40 C-77.24621094 40.68578125 -77.49242187 41.3715625 -77.74609375 42.078125 C-81.57083077 54.63381342 -77.99395805 67.01812584 -74 79 C-73.8671875 80.9375 -73.8671875 80.9375 -73.875 83 C-73.87113281 84.0209375 -73.87113281 84.0209375 -73.8671875 85.0625 C-74 87 -74 87 -75 90 C-79.5346353 90.85024412 -83.0905885 90.93564845 -87.69921875 90.2734375 C-95.89753522 89.29910447 -103.13793726 88.99473071 -110 94 C-113.51708682 96.82724021 -116.78193254 99.83838987 -120 103 C-120.71542969 103.6909375 -121.43085937 104.381875 -122.16796875 105.09375 C-129.52323036 112.71932103 -135.89543507 123.14862095 -136 134 C-135.70380098 137.34590033 -135.12106701 140.58812727 -134.4375 143.875 C-134.25550049 144.75833008 -134.07350098 145.64166016 -133.88598633 146.55175781 C-132.3942621 153.24566165 -130.30493913 158.58747945 -126 164 C-125.26523438 165.03253906 -125.26523438 165.03253906 -124.515625 166.0859375 C-117.54787397 175.08882374 -107.07537962 179.8221339 -96.75 183.9375 C-96.0180542 184.23213135 -95.2861084 184.5267627 -94.53198242 184.83032227 C-87.28476989 187.57235672 -80.42102032 188.83527801 -72.8125 186.8125 C-71.36810547 186.45091797 -71.36810547 186.45091797 -69.89453125 186.08203125 C-63.51725226 183.69808216 -58.65857899 179.12738792 -53.625 174.6875 C-52.96016602 174.10645508 -52.29533203 173.52541016 -51.61035156 172.92675781 C-48.94456699 170.59533916 -46.28768942 168.25398323 -43.6328125 165.91015625 C-38.20755651 161.12647618 -32.61845805 156.55466912 -27 152 C-22.36850602 153.47226299 -22.36850602 153.47226299 -20.734375 155.8125 C-20.40953125 156.534375 -20.0846875 157.25625 -19.75 158 C-12.70646934 171.71170075 -1.31113926 179.40064539 13 184 C26.58446665 187.50710087 40.14391826 184.90746714 52.25 178.3125 C64.59773121 170.39019565 72.20716946 156.70611948 75.55078125 142.69140625 C77.17320832 132.97095191 76.93845228 122.70866854 72 114 C63.95187322 102.92577755 52.19130271 94.85614792 38.58984375 92.37890625 C29.49662442 91.4191214 21.01562698 91.26032902 12.34765625 94.328125 C6.99707251 95.85940687 1.31729077 95.50535172 -4 94 C-3.63814501 85.49640773 -1.34824948 78.90038889 2.3046875 71.27734375 C7.16262921 61.05841903 10.63197124 49.07922193 6.875 37.875 C6.29024695 36.56462156 5.6630531 35.27255191 5 34 C4.64421875 33.30519531 4.2884375 32.61039063 3.921875 31.89453125 C-2.46016759 21.03352504 -15.81094736 10.26651076 -27.875 6.625 C-42.92072578 3.71878335 -56.0702293 7.90872582 -66.16015625 19.4765625 Z " fill="#2154D6" transform="translate(180,53)"/>
</svg>
