<svg width="250" height="296" viewBox="0 0 250 296" fill="none" xmlns="http://www.w3.org/2000/svg">
<rect y="25" width="250" height="250" rx="125" fill="white"/>
<path d="M65.1203 153.15L73.9404 168.385C75.7732 171.592 78.4078 174.112 81.5006 175.945L113.001 121.42H50C50 124.971 50.9164 128.522 52.7491 131.73L65.1203 153.15Z" fill="#0066DA"/>
<path d="M150 57.2737L118.499 2.74902C115.407 4.58178 112.772 7.10183 110.939 10.3092L52.7491 111.111C50.9501 114.249 50.0024 117.803 50 121.42H113.001L150 57.2737Z" fill="#00AC47"/>
<path d="M218.499 175.945C221.592 174.112 224.227 171.592 226.06 168.385L229.725 162.085L247.251 131.73C249.084 128.522 250 124.971 250 121.42H186.994L200.401 147.766L218.499 175.945Z" fill="#EA4335"/>
<path d="M150 57.2738L181.501 2.74914C178.408 0.916381 174.857 0 171.191 0H128.809C125.143 0 121.592 1.03093 118.5 2.74914L150 57.2738Z" fill="#00832D"/>
<path d="M186.999 121.42H113.001L81.5006 175.945C84.5934 177.778 88.1444 178.694 91.8099 178.694H208.19C211.856 178.694 215.407 177.663 218.5 175.945L186.999 121.42Z" fill="#2684FC"/>
<path d="M218.156 60.7101L189.061 10.3092C187.228 7.10183 184.593 4.58178 181.501 2.74902L150 57.2737L186.999 121.42H249.886C249.886 117.869 248.969 114.318 247.136 111.111L218.156 60.7101Z" fill="#FFBA00"/>
<mask id="mask0_2001_62" style="mask-type:luminance" maskUnits="userSpaceOnUse" x="0" y="89" width="150" height="207">
<path d="M93.75 89H14.0625C6.32813 89 0 95.3281 0 103.063V281.188C0 288.922 6.32813 295.25 14.0625 295.25H135.938C143.672 295.25 150 288.922 150 281.188V145.25L93.75 89Z" fill="white"/>
</mask>
<g mask="url(#mask0_2001_62)">
<path d="M93.75 89H14.0625C6.32813 89 0 95.3281 0 103.063V281.188C0 288.922 6.32813 295.25 14.0625 295.25H135.938C143.672 295.25 150 288.922 150 281.188V145.25L117.188 121.813L93.75 89Z" fill="#0F9D58"/>
</g>
<mask id="mask1_2001_62" style="mask-type:luminance" maskUnits="userSpaceOnUse" x="0" y="89" width="150" height="207">
<path d="M93.75 89H14.0625C6.32813 89 0 95.3281 0 103.063V281.188C0 288.922 6.32813 295.25 14.0625 295.25H135.938C143.672 295.25 150 288.922 150 281.188V145.25L93.75 89Z" fill="white"/>
</mask>
<g mask="url(#mask1_2001_62)">
<path d="M37.4996 189.781V257.75H112.5V189.781H37.4996ZM70.3121 248.375H46.8746V236.656H70.3121V248.375ZM70.3121 229.625H46.8746V217.906H70.3121V229.625ZM70.3121 210.875H46.8746V199.156H70.3121V210.875ZM103.125 248.375H79.6871V236.656H103.125V248.375ZM103.125 229.625H79.6871V217.906H103.125V229.625ZM103.125 210.875H79.6871V199.156H103.125V210.875Z" fill="#F1F1F1"/>
</g>
<mask id="mask2_2001_62" style="mask-type:luminance" maskUnits="userSpaceOnUse" x="0" y="89" width="150" height="207">
<path d="M93.75 89H14.0625C6.32813 89 0 95.3281 0 103.063V281.188C0 288.922 6.32813 295.25 14.0625 295.25H135.938C143.672 295.25 150 288.922 150 281.188V145.25L93.75 89Z" fill="white"/>
</mask>
<g mask="url(#mask2_2001_62)">
<path d="M97.8633 141.137L150 193.262V145.25L97.8633 141.137Z" fill="url(#paint0_linear_2001_62)"/>
</g>
<mask id="mask3_2001_62" style="mask-type:luminance" maskUnits="userSpaceOnUse" x="0" y="89" width="150" height="207">
<path d="M93.75 89H14.0625C6.32813 89 0 95.3281 0 103.063V281.188C0 288.922 6.32813 295.25 14.0625 295.25H135.938C143.672 295.25 150 288.922 150 281.188V145.25L93.75 89Z" fill="white"/>
</mask>
<g mask="url(#mask3_2001_62)">
<path d="M93.7496 89V131.188C93.7496 138.957 100.043 145.25 107.812 145.25H150L93.7496 89Z" fill="#87CEAC"/>
</g>
<mask id="mask4_2001_62" style="mask-type:luminance" maskUnits="userSpaceOnUse" x="0" y="89" width="150" height="207">
<path d="M93.75 89H14.0625C6.32813 89 0 95.3281 0 103.063V281.188C0 288.922 6.32813 295.25 14.0625 295.25H135.938C143.672 295.25 150 288.922 150 281.188V145.25L93.75 89Z" fill="white"/>
</mask>
<g mask="url(#mask4_2001_62)">
<path d="M14.0625 89C6.32813 89 0 95.3281 0 103.063V104.234C0 96.5 6.32813 90.1719 14.0625 90.1719H93.75V89H14.0625Z" fill="white" fill-opacity="0.2"/>
</g>
<mask id="mask5_2001_62" style="mask-type:luminance" maskUnits="userSpaceOnUse" x="0" y="89" width="150" height="207">
<path d="M93.75 89H14.0625C6.32813 89 0 95.3281 0 103.063V281.188C0 288.922 6.32813 295.25 14.0625 295.25H135.938C143.672 295.25 150 288.922 150 281.188V145.25L93.75 89Z" fill="white"/>
</mask>
<g mask="url(#mask5_2001_62)">
<path d="M135.938 294.079H14.0625C6.32813 294.079 0 287.75 0 280.016V281.188C0 288.922 6.32813 295.25 14.0625 295.25H135.938C143.672 295.25 150 288.922 150 281.188V280.016C150 287.75 143.672 294.079 135.938 294.079Z" fill="#263238" fill-opacity="0.2"/>
</g>
<mask id="mask6_2001_62" style="mask-type:luminance" maskUnits="userSpaceOnUse" x="0" y="89" width="150" height="207">
<path d="M93.75 89H14.0625C6.32813 89 0 95.3281 0 103.063V281.188C0 288.922 6.32813 295.25 14.0625 295.25H135.938C143.672 295.25 150 288.922 150 281.188V145.25L93.75 89Z" fill="white"/>
</mask>
<g mask="url(#mask6_2001_62)">
<path d="M107.812 145.25C100.043 145.25 93.7496 138.957 93.7496 131.188V132.359C93.7496 140.129 100.043 146.422 107.812 146.422H150V145.25H107.812Z" fill="#263238" fill-opacity="0.1"/>
</g>
<path d="M93.75 89H14.0625C6.32813 89 0 95.3281 0 103.063V281.188C0 288.922 6.32813 295.25 14.0625 295.25H135.938C143.672 295.25 150 288.922 150 281.188V145.25L93.75 89Z" fill="url(#paint1_radial_2001_62)"/>
<defs>
<linearGradient id="paint0_linear_2001_62" x1="2704.98" y1="588.688" x2="2704.98" y2="5354.36" gradientUnits="userSpaceOnUse">
<stop stop-color="#263238" stop-opacity="0.2"/>
<stop offset="1" stop-color="#263238" stop-opacity="0.02"/>
</linearGradient>
<radialGradient id="paint1_radial_2001_62" cx="0" cy="0" r="1" gradientUnits="userSpaceOnUse" gradientTransform="translate(475.207 496.641) scale(24187.3 24187.3)">
<stop stop-color="white" stop-opacity="0.1"/>
<stop offset="1" stop-color="white" stop-opacity="0"/>
</radialGradient>
</defs>
</svg>
